<svg viewBox="0 0 100 100" width="100" height="100" fill="none" xmlns="http://www.w3.org/2000/svg">
     <g transform="translate(50, 50)">
       <path d="M0 -15 C 10 -15, 15 -8, 15 0 C 15 8, 10 15, 0 15 L -4 0 Z" transform="rotate(15) translate(0, -8) skewX(-25)" fill="#EAB308" opacity="0.9"/>
       <path d="M0 -15 C 10 -15, 15 -8, 15 0 C 15 8, 10 15, 0 15 L -4 0 Z" transform="rotate(45) translate(0, -8) skewX(-25)" fill="#EAB308" opacity="0.9"/>
       <path d="M0 -15 C 10 -15, 15 -8, 15 0 C 15 8, 10 15, 0 15 L -4 0 Z" transform="rotate(75) translate(0, -8) skewX(-25)" fill="#EAB308" opacity="0.9"/>
       <path d="M0 -15 C 10 -15, 15 -8, 15 0 C 15 8, 10 15, 0 15 L -4 0 Z" transform="rotate(105) translate(0, -8) skewX(-25)" fill="#EAB308" opacity="0.9"/>
       <path d="M0 -15 C 10 -15, 15 -8, 15 0 C 15 8, 10 15, 0 15 L -4 0 Z" transform="rotate(135) translate(0, -8) skewX(-25)" fill="#EAB308" opacity="0.9"/>
       <path d="M0 -15 C 10 -15, 15 -8, 15 0 C 15 8, 10 15, 0 15 L -4 0 Z" transform="rotate(165) translate(0, -8) skewX(-25)" fill="#EAB308" opacity="0.9"/>
       <path d="M0 -15 C 10 -15, 15 -8, 15 0 C 15 8, 10 15, 0 15 L -4 0 Z" transform="rotate(195) translate(0, -8) skewX(-25)" fill="#EAB308" opacity="0.9"/>
       <path d="M0 -15 C 10 -15, 15 -8, 15 0 C 15 8, 10 15, 0 15 L -4 0 Z" transform="rotate(225) translate(0, -8) skewX(-25)" fill="#EAB308" opacity="0.9"/>
       <path d="M0 -15 C 10 -15, 15 -8, 15 0 C 15 8, 10 15, 0 15 L -4 0 Z" transform="rotate(255) translate(0, -8) skewX(-25)" fill="#EAB308" opacity="0.9"/>
       <path d="M0 -15 C 10 -15, 15 -8, 15 0 C 15 8, 10 15, 0 15 L -4 0 Z" transform="rotate(285) translate(0, -8) skewX(-25)" fill="#EAB308" opacity="0.9"/>
       <path d="M0 -15 C 10 -15, 15 -8, 15 0 C 15 8, 10 15, 0 15 L -4 0 Z" transform="rotate(315) translate(0, -8) skewX(-25)" fill="#EAB308" opacity="0.9"/>
       <path d="M0 -15 C 10 -15, 15 -8, 15 0 C 15 8, 10 15, 0 15 L -4 0 Z" transform="rotate(345) translate(0, -8) skewX(-25)" fill="#EAB308" opacity="0.9"/>
     </g>
     <g transform="rotate(0 50 50)">
       <circle cx="50" cy="50" r="38" stroke="#EAB308" stroke-width="0.5" opacity="0.1"/>
       <path d="M85 50 C 85 42, 80 38, 72 38 C 76 38, 80 34, 80 28 C 84 32, 92 38, 85 50 Z" fill="#EAB308" opacity="0.7" transform="translate(2, -4) rotate(15 85 50)"/>
     </g>
     <g transform="rotate(90 50 50)">
       <circle cx="50" cy="50" r="38" stroke="#EAB308" stroke-width="0.5" opacity="0.1"/>
       <path d="M85 50 C 85 42, 80 38, 72 38 C 76 38, 80 34, 80 28 C 84 32, 92 38, 85 50 Z" fill="#EAB308" opacity="0.7" transform="translate(2, -4) rotate(15 85 50)"/>
     </g>
     <g transform="rotate(180 50 50)">
       <circle cx="50" cy="50" r="38" stroke="#EAB308" stroke-width="0.5" opacity="0.1"/>
       <path d="M85 50 C 85 42, 80 38, 72 38 C 76 38, 80 34, 80 28 C 84 32, 92 38, 85 50 Z" fill="#EAB308" opacity="0.7" transform="translate(2, -4) rotate(15 85 50)"/>
     </g>
     <g transform="rotate(270 50 50)">
       <circle cx="50" cy="50" r="38" stroke="#EAB308" stroke-width="0.5" opacity="0.1"/>
       <path d="M85 50 C 85 42, 80 38, 72 38 C 76 38, 80 34, 80 28 C 84 32, 92 38, 85 50 Z" fill="#EAB308" opacity="0.7" transform="translate(2, -4) rotate(15 85 50)"/>
     </g>
 </svg>
